<?xml version="1.0" encoding="UTF-8"?>
<svg id="Layer_2" data-name="Layer 2" xmlns="http://www.w3.org/2000/svg" viewBox="0 0 51.22 64">
  <defs>
    <style>
      .cls-1 {
        fill: #fff;
      }
    </style>
  </defs>
  <g id="Layer_2-2" data-name="Layer 2">
    <g id="Layer_1-2" data-name="Layer 1-2">
      <path class="cls-1" d="M0,54.4v-4.8H6.72V25.12c0-4.48,1.31-8.46,3.95-11.97,2.64-3.49,6.13-5.7,10.45-6.59v-2.32c0-1.23,.43-2.24,1.33-3.04s1.94-1.2,3.15-1.2,2.29,.4,3.17,1.2,1.33,1.81,1.33,3.04v2.32c4.32,.91,7.81,3.1,10.48,6.59,2.67,3.49,4,7.47,4,11.97v24.48h6.64v4.8H0Zm25.6,9.6c-1.71,0-3.2-.62-4.48-1.87s-1.92-2.75-1.92-4.53h12.8c0,1.76-.62,3.26-1.87,4.53-1.25,1.25-2.77,1.87-4.53,1.87Zm-14.08-14.4h28.24V25.12c0-3.95-1.36-7.31-4.08-10.08-2.72-2.77-6.05-4.16-10-4.16s-7.3,1.39-10.03,4.16c-2.75,2.77-4.11,6.13-4.11,10.08v24.48h-.02Z"/>
    </g>
  </g>
</svg>