<?xml version="1.0" encoding="UTF-8"?>
<svg id="Layer_2" data-name="Layer 2" xmlns="http://www.w3.org/2000/svg" viewBox="0 0 64 64">
  <defs>
    <style>
      .cls-1 {
        fill: #fff;
      }

      .cls-2 {
        fill: none;
      }
    </style>
  </defs>
  <g id="Layer_2-2" data-name="Layer 2">
    <rect class="cls-2" width="64" height="64"/>
    <g id="Layer_1-2" data-name="Layer 1-2">
      <path class="cls-1" d="M15.44,1.51H49.29V40.54l-21.19,21.96-2.97-2.36c-.3-.26-.53-.61-.69-1.07-.15-.46-.23-1.02-.23-1.68v-.76l3.43-16.09H4.84c-1.22,0-2.29-.46-3.2-1.37s-1.37-1.98-1.37-3.2v-6.25c0-.35-.05-.73-.12-1.11-.08-.38-.03-.75,.12-1.1L9.87,5.39c.46-1.07,1.2-1.98,2.26-2.74,1.04-.76,2.15-1.14,3.31-1.14Zm29.27,4.57H14.45L4.84,28.87v7.09h28.44l-4.04,18.98,15.48-16.31V6.08Zm4.57,34.46v-4.57h10.14V6.08h-10.14V1.51h14.71V40.54h-14.71Z"/>
    </g>
  </g>
</svg>