<?xml version="1.0" encoding="UTF-8"?>
<svg id="Layer_2" data-name="Layer 2" xmlns="http://www.w3.org/2000/svg" viewBox="0 0 64 64">
  <defs>
    <style>
      .cls-1 {
        fill: #fff;
      }

      .cls-2 {
        fill: none;
      }
    </style>
  </defs>
  <g id="Layer_2-2" data-name="Layer 2">
    <rect class="cls-2" width="64" height="64"/>
    <g id="Layer_1-2" data-name="Layer 1-2">
      <path class="cls-1" d="M15.16,1.52H50.74V40.53l-21.18,21.94-2.51-1.98c-.56-.41-.93-.87-1.11-1.37-.18-.5-.26-1.1-.26-1.75v-.76l3.43-16.08H4.57c-1.17,0-2.22-.47-3.17-1.4C.46,38.19,0,37.14,0,35.96v-6.25C0,29.15,.06,28.51,.18,27.78c.12-.73,.32-1.39,.58-1.94L9.6,5.41c.46-1.07,1.2-1.98,2.26-2.74,1.04-.76,2.15-1.14,3.31-1.14ZM55.31,40.53V1.52h8.69V40.53h-8.69Z"/>
    </g>
  </g>
</svg>