<?xml version="1.0" encoding="UTF-8"?>
<svg id="Layer_2" data-name="Layer 2" xmlns="http://www.w3.org/2000/svg" viewBox="0 0 64 64">
  <defs>
    <style>
      .cls-1 {
        fill: #fff;
      }

      .cls-2 {
        fill: none;
      }
    </style>
  </defs>
  <g id="Layer_2-2" data-name="Layer 2">
    <rect class="cls-2" width="64" height="64"/>
    <g id="Layer_1-2" data-name="Layer 1-2">
      <path class="cls-1" d="M48.64,62.54H14.74V23.44L35.97,1.45l2.98,2.37c.31,.26,.53,.61,.69,1.07,.15,.46,.23,1.02,.23,1.68v.76l-3.44,16.11h22.83c1.22,0,2.29,.46,3.21,1.37,.92,.92,1.37,1.99,1.37,3.21v6.26c0,.35,.03,.73,.12,1.11,.08,.38,.05,.75-.12,1.11l-9.62,22.14c-.46,1.07-1.21,1.99-2.25,2.75s-2.15,1.15-3.33,1.15v-.02Zm-29.32-4.58h30.32l9.62-22.83v-7.1H30.77l4.05-19.01-15.5,16.34V57.96ZM14.74,23.44v4.58H4.58v29.93H14.74v4.58H0V23.44H14.74Z"/>
    </g>
  </g>
</svg>