<?xml version="1.0" encoding="UTF-8"?>
<svg id="Layer_2" data-name="Layer 2" xmlns="http://www.w3.org/2000/svg" viewBox="0 0 460 323.44">
  <defs>
    <style>
      .cls-1 {
        fill: #fff;
      }

      .cls-2 {
        fill: #00ee06;
      }
    </style>
  </defs>
  <g id="Layer_1-2" data-name="Layer 1">
    <g id="_395-youtube" data-name="395-youtube">
      <g>
        <path class="cls-2" d="M450.39,50.61c-5.29-19.92-20.88-35.61-40.67-40.93C373.84,0,230,0,230,0c0,0-143.85,0-179.72,9.67C30.49,15,14.9,30.69,9.61,50.61,0,86.71,0,162.04,0,162.04c0,0,0,75.33,9.61,111.44,5.29,19.92,20.88,34.96,40.67,40.28,35.87,9.67,179.72,9.67,179.72,9.67,0,0,143.85,0,179.72-9.67,19.79-5.33,35.38-20.36,40.67-40.28,9.61-36.1,9.61-111.44,9.61-111.44,0,0,0-75.33-9.61-111.44Z"/>
        <polygon class="cls-1" points="182.95 230.44 182.95 93.65 303.18 162.05 182.95 230.44"/>
      </g>
    </g>
  </g>
</svg>