<?xml version="1.0" encoding="UTF-8"?>
<svg id="Layer_2" data-name="Layer 2" xmlns="http://www.w3.org/2000/svg" viewBox="0 0 64 64">
  <defs>
    <style>
      .cls-1 {
        fill: #fff;
      }

      .cls-2 {
        fill: none;
      }
    </style>
  </defs>
  <g id="Layer_2-2" data-name="Layer 2">
    <rect class="cls-2" width="64" height="64"/>
    <g id="Layer_1-2" data-name="Layer 1-2">
      <path class="cls-1" d="M32,38.48c-2.41,0-4.43-.88-6.06-2.61s-2.44-3.84-2.44-6.32V8.42c0-2.36,.83-4.35,2.49-5.98s3.67-2.44,6.03-2.44,4.36,.81,6.03,2.44c1.67,1.63,2.48,3.62,2.48,5.98V29.56c0,2.48-.81,4.58-2.44,6.32-1.63,1.73-3.65,2.61-6.06,2.61h-.02Zm-2.53,25.52v-11.45c-5.95-.62-10.95-3.12-14.99-7.49-4.04-4.38-6.06-9.55-6.06-15.49h5.05c0,5.1,1.8,9.4,5.44,12.88,3.62,3.49,7.98,5.22,13.09,5.22s9.47-1.73,13.09-5.22,5.44-7.78,5.44-12.88h5.05c0,5.95-2.02,11.12-6.06,15.49s-9.04,6.87-14.99,7.49v11.45h-5.05Z"/>
    </g>
  </g>
</svg>