<?xml version="1.0" encoding="UTF-8"?>
<svg id="Layer_2" data-name="Layer 2" xmlns="http://www.w3.org/2000/svg" viewBox="0 0 64 64.03">
  <defs>
    <style>
      .cls-1 {
        fill: #fff;
      }

      .cls-2 {
        fill: none;
      }
    </style>
  </defs>
  <g id="Layer_1-2" data-name="Layer 1">
    <g id="Layer_1-2" data-name="Layer 1-2">
      <path class="cls-1" d="M32,64.03c-3.82,0-7.39-.72-10.71-2.14s-6.24-3.39-8.75-5.88c-2.49-2.49-4.46-5.4-5.88-8.73-1.42-3.33-2.14-6.91-2.14-10.73h4.58c0,6.36,2.23,11.77,6.69,16.21,4.46,4.46,9.86,6.69,16.21,6.69s11.77-2.23,16.21-6.69c4.46-4.46,6.69-9.86,6.69-16.21s-2.17-11.77-6.49-16.21c-4.32-4.46-9.66-6.69-16.03-6.69h-1.68l5.57,5.57-3.21,3.21-11.22-11.22L33.07,0l3.13,3.13-5.95,5.95h1.76c3.82,0,7.39,.72,10.71,2.14,3.33,1.42,6.24,3.39,8.75,5.88s4.46,5.4,5.88,8.75c1.42,3.33,2.14,6.9,2.14,10.71s-.72,7.39-2.14,10.73-3.39,6.24-5.88,8.73-5.4,4.46-8.75,5.88c-3.33,1.42-6.9,2.14-10.71,2.14Zm-7.63-17.55v-3.82h9.69v-4.27h-9.69v-11.83h13.43v3.74h-9.62v4.35h7.02c.72,0,1.33,.26,1.83,.76s.76,1.11,.76,1.83v6.64c0,.72-.26,1.33-.76,1.83s-1.11,.76-1.83,.76c0,0-10.84,0-10.84,0Z"/>
    </g>
    <rect class="cls-2" y=".01" width="64" height="64"/>
  </g>
</svg>