<?xml version="1.0" encoding="UTF-8"?>
<svg id="Layer_2" data-name="Layer 2" xmlns="http://www.w3.org/2000/svg" viewBox="0 0 64 64">
  <defs>
    <style>
      .cls-1 {
        fill: #fff;
      }

      .cls-2 {
        fill: none;
      }
    </style>
  </defs>
  <g id="Layer_2-2" data-name="Layer 2">
    <rect class="cls-2" width="64" height="64"/>
    <g id="Layer_1-2" data-name="Layer 1-2">
      <path class="cls-1" d="M60.59,64l-10.47-10.47c-1.48,1.06-3.08,1.97-4.79,2.73s-3.51,1.36-5.36,1.78v-4.92c1.22-.36,2.4-.78,3.54-1.24,1.14-.44,2.2-1.05,3.2-1.78l-13.09-13.16v18.8l-15.86-15.86H5.08V20.86h12.37L0,3.41,3.41,0,64,60.51s-3.41,3.49-3.41,3.49Zm-2.86-18.4l-3.41-3.41c1.06-1.79,1.84-3.7,2.33-5.71s.75-4.08,.75-6.19c0-5.44-1.59-10.33-4.76-14.64-3.17-4.31-7.41-7.04-12.69-8.22V2.54c6.55,1.48,11.9,4.81,16.02,9.96s6.19,11.09,6.19,17.81c0,2.7-.36,5.35-1.11,7.93-.75,2.59-1.86,5.04-3.33,7.38l.02-.02Zm-10.63-10.63l-7.14-7.14v-10.31c2.49,1.16,4.43,2.9,5.82,5.23s2.11,4.87,2.11,7.61c0,.79-.06,1.57-.19,2.35s-.33,1.52-.6,2.25Zm-13.48-13.48l-8.25-8.25,8.25-8.25s0,16.5,0,16.5Z"/>
    </g>
  </g>
</svg>