<?xml version="1.0" encoding="UTF-8"?>
<svg id="Layer_2" data-name="Layer 2" xmlns="http://www.w3.org/2000/svg" viewBox="0 0 64.13 64.14">
  <defs>
    <style>
      .cls-1 {
        fill: #fff;
      }

      .cls-2 {
        fill: none;
      }
    </style>
  </defs>
  <g id="Layer_1-2" data-name="Layer 1">
    <path class="cls-1" d="M61.61,19.57c-1.69-3.91-3.97-7.3-6.86-10.19-2.88-2.88-6.28-5.17-10.18-6.85-3.9-1.68-8.07-2.53-12.5-2.53s-8.53,.85-12.43,2.53c-3.9,1.68-7.31,3.97-10.22,6.85-2.91,2.89-5.21,6.28-6.89,10.19-1.69,3.9-2.53,8.07-2.53,12.5s.84,8.53,2.53,12.43c1.68,3.9,3.98,7.31,6.89,10.22s6.32,5.21,10.22,6.89c3.9,1.69,8.04,2.53,12.43,2.53s8.6-.84,12.5-2.53c3.9-1.68,7.3-3.98,10.18-6.89,2.89-2.91,5.17-6.32,6.86-10.22,1.68-3.9,2.52-8.05,2.52-12.43s-.84-8.6-2.52-12.5ZM28.06,44.9h-4.81V19.25h4.81v25.65Zm12.83,0h-4.81V19.25h4.81v25.65Z"/>
    <rect x="23.25" y="19.25" width="4.81" height="25.65"/>
    <rect x="36.08" y="19.25" width="4.81" height="25.65"/>
    <rect class="cls-2" width="64" height="64"/>
  </g>
</svg>