<?xml version="1.0" encoding="UTF-8"?>
<svg id="Layer_2" data-name="Layer 2" xmlns="http://www.w3.org/2000/svg" viewBox="0 0 64 64">
  <defs>
    <style>
      .cls-1 {
        fill: #fff;
      }

      .cls-2 {
        fill: none;
      }

      .cls-3 {
        fill: #010101;
      }
    </style>
  </defs>
  <g id="Layer_1-2" data-name="Layer 1">
    <g id="Layer_1-2" data-name="Layer 1-2">
      <polygon class="cls-3" points="45.6 32 24.24 45.6 24.24 18.4 45.6 32"/>
      <path class="cls-1" d="M61.47,19.52c-1.66-3.89-3.95-7.28-6.83-10.16-2.88-2.88-6.27-5.17-10.16-6.85-3.89-1.66-8.05-2.51-12.48-2.51s-8.51,.85-12.4,2.53c-3.89,1.68-7.3,3.95-10.19,6.83-2.91,2.88-5.22,6.27-6.9,10.16C.85,23.41,0,27.57,0,32s.85,8.51,2.51,12.4c1.68,3.89,3.98,7.3,6.9,10.19,2.9,2.91,6.3,5.22,10.19,6.88,3.89,1.7,8.03,2.53,12.4,2.53s8.59-.83,12.48-2.53c3.89-1.66,7.28-3.97,10.16-6.88,2.88-2.9,5.17-6.3,6.83-10.19,1.7-3.89,2.53-8.03,2.53-12.4s-.83-8.59-2.53-12.48ZM24.24,45.6V18.4l21.36,13.6-21.36,13.6Z"/>
    </g>
    <rect class="cls-2" width="64" height="64"/>
  </g>
</svg>