<?xml version="1.0" encoding="UTF-8"?>
<svg id="Layer_2" data-name="Layer 2" xmlns="http://www.w3.org/2000/svg" viewBox="0 0 64 64">
  <defs>
    <style>
      .cls-1 {
        fill: #fff;
      }

      .cls-2 {
        fill: none;
      }
    </style>
  </defs>
  <g id="Layer_1-2" data-name="Layer 1">
    <g id="Layer_1-2" data-name="Layer 1-2">
      <path class="cls-1" d="M32,64c-3.81,0-7.38-.72-10.71-2.14s-6.24-3.39-8.74-5.87c-2.49-2.49-4.45-5.4-5.87-8.73-1.42-3.33-2.14-6.91-2.14-10.73s.72-7.38,2.14-10.71c1.42-3.33,3.39-6.24,5.87-8.74,2.49-2.49,5.4-4.45,8.74-5.87,3.33-1.42,6.9-2.14,10.71-2.14h1.6l-5.95-5.95,3.13-3.13,11.21,11.21-11.21,11.21-3.13-3.13,5.64-5.64h-1.3c-6.36,0-11.76,2.23-16.2,6.68-4.45,4.45-6.68,9.86-6.68,16.2s2.23,11.76,6.68,16.2c4.45,4.45,9.86,6.68,16.2,6.68s11.76-2.23,16.2-6.68c4.45-4.45,6.68-9.86,6.68-16.2h4.58c0,3.81-.72,7.38-2.14,10.73s-3.39,6.24-5.87,8.73-5.4,4.45-8.74,5.87c-3.33,1.42-6.9,2.14-10.71,2.14Zm-7.63-17.54v-3.81h9.69v-4.27h-9.69v-11.82h13.43v3.74h-9.61v4.35h7.02c.72,0,1.33,.26,1.83,.76s.76,1.11,.76,1.83v6.64c0,.72-.26,1.33-.76,1.83s-1.11,.76-1.83,.76c0,0-10.83,0-10.83,0Z"/>
    </g>
    <rect class="cls-2" width="64" height="64"/>
  </g>
</svg>