<?xml version="1.0" encoding="UTF-8"?>
<svg id="Layer_2" data-name="Layer 2" xmlns="http://www.w3.org/2000/svg" viewBox="0 0 64 64">
  <defs>
    <style>
      .cls-1 {
        fill: #fff;
      }

      .cls-2 {
        fill: none;
      }
    </style>
  </defs>
  <g id="Layer_2-2" data-name="Layer 2">
    <rect class="cls-2" width="64" height="64"/>
    <g id="Layer_1-2" data-name="Layer 1-2">
      <path class="cls-1" d="M63.25,59.76l-19.6-19.6c3.47-4.23,5.56-9.64,5.56-15.54C49.21,11.05,38.19,.04,24.62,.04S.03,11.05,.03,24.62s11.01,24.59,24.59,24.59c5.9,0,11.31-2.09,15.54-5.56l19.6,19.6c.47,.47,1.08,.71,1.75,.71s1.28-.25,1.75-.71h0c.96-.96,.96-2.53,0-3.47v-.02Zm-38.63-15.46c-10.87,0-19.67-8.8-19.67-19.67S13.75,4.96,24.62,4.96s19.67,8.8,19.67,19.67-8.8,19.67-19.67,19.67Z"/>
    </g>
  </g>
</svg>