<?xml version="1.0" encoding="UTF-8"?>
<svg id="Layer_2" data-name="Layer 2" xmlns="http://www.w3.org/2000/svg" viewBox="0 0 64 64">
  <defs>
    <style>
      .cls-1 {
        fill: #fff;
      }

      .cls-2 {
        fill: none;
      }
    </style>
  </defs>
  <g id="Layer_2-2" data-name="Layer 2">
    <rect class="cls-2" width="64" height="64"/>
    <g id="Layer_1-2" data-name="Layer 1-2">
      <path class="cls-1" d="M24.64,63.98l-1.6-10.08c-1.01-.37-2.08-.88-3.2-1.52s-2.11-1.31-2.96-2l-9.44,4.32L0,41.59l8.64-6.32c-.11-.48-.18-1.02-.19-1.63-.03-.61-.03-1.15-.03-1.63s0-1.02,.03-1.63c.03-.61,.1-1.17,.19-1.63L0,22.39,7.45,9.28l9.44,4.32c.85-.69,1.84-1.36,2.96-2,1.12-.64,2.19-1.12,3.2-1.44L24.64,0h14.72l1.6,10.08c1.01,.37,2.1,.86,3.23,1.49,1.15,.61,2.13,1.3,2.93,2.03l9.44-4.32,7.44,13.12-8.64,6.16c.11,.53,.18,1.1,.19,1.73,.03,.61,.05,1.18,.05,1.73s0,1.09-.05,1.68c-.03,.59-.1,1.15-.19,1.68l8.64,6.24-7.44,13.12-9.44-4.32c-.85,.69-1.82,1.38-2.93,2.05-1.09,.67-2.18,1.15-3.23,1.47l-1.6,10.08h-14.72v-.02Zm7.36-21.59c2.88,0,5.33-1.01,7.36-3.04s3.04-4.48,3.04-7.36-1.01-5.33-3.04-7.36-4.48-3.04-7.36-3.04-5.33,1.01-7.36,3.04c-2.03,2.03-3.04,4.48-3.04,7.36s1.01,5.33,3.04,7.36c2.03,2.03,4.48,3.04,7.36,3.04Z"/>
    </g>
  </g>
</svg>