<?xml version="1.0" encoding="UTF-8"?>
<svg id="Layer_2" data-name="Layer 2" xmlns="http://www.w3.org/2000/svg" viewBox="0 0 64 64">
  <defs>
    <style>
      .cls-1 {
        fill: #fff;
      }

      .cls-2 {
        fill: none;
      }
    </style>
  </defs>
  <g id="Layer_1-2" data-name="Layer 1">
    <g id="Layer_1-2" data-name="Layer 1-2">
      <g id="Layer_51" data-name="Layer 51">
        <path class="cls-1" d="M2.14,59.73c-.21,.02-.45,.02-.66,0-.92-.3-1.51-1.17-1.47-2.13v-2.13C0,35.55,14.47,18.57,34.14,15.44V6.39c0-1.17,.96-2.13,2.13-2.13,.47,0,.92,.15,1.28,.43l25.6,19.2c.94,.7,1.13,2.05,.43,2.99-.13,.17-.26,.3-.43,.43l-25.6,19.2c-.94,.7-2.28,.51-2.99-.43-.28-.36-.43-.81-.43-1.28v-8c-10.33,1.69-19.58,7.38-25.75,15.83l-4.52,6.23c-.41,.55-1.05,.87-1.73,.87ZM38.4,10.66v6.66c0,1.09-.81,2.01-1.9,2.13-16.55,1.81-29.74,14.66-32,31.15l.34-.45c7.38-10.13,18.73-16.66,31.21-17.92,.6-.06,1.19,.15,1.64,.55,.45,.41,.7,.98,.7,1.58v6.17l19.9-14.93-19.9-14.93Z"/>
      </g>
    </g>
    <rect class="cls-2" width="64" height="64"/>
  </g>
</svg>