<?xml version="1.0" encoding="UTF-8"?>
<svg id="Layer_2" data-name="Layer 2" xmlns="http://www.w3.org/2000/svg" viewBox="0 0 64 64">
  <defs>
    <style>
      .cls-1 {
        fill: #fff;
      }

      .cls-2 {
        fill: none;
      }
    </style>
  </defs>
  <g id="Layer_1-2" data-name="Layer 1">
    <rect class="cls-2" width="64" height="64"/>
    <g id="Layer_1-2" data-name="Layer 1-2">
      <path class="cls-1" d="M5.33,60.44c-1.42,0-2.67-.53-3.73-1.6-1.07-1.07-1.6-2.31-1.6-3.73V8.89c0-1.42,.53-2.67,1.6-3.73,1.07-1.07,2.31-1.6,3.73-1.6H58.67c1.42,0,2.67,.53,3.73,1.6,1.07,1.07,1.6,2.31,1.6,3.73V55.11c0,1.42-.53,2.67-1.6,3.73-1.07,1.07-2.31,1.6-3.73,1.6H5.33Zm8-17.87h12.62c.76,0,1.4-.25,1.92-.75s.75-1.14,.75-1.92v-3.73h-4.44v1.96H15.11v-12.27h9.07v1.96h4.44v-3.73c0-.76-.25-1.4-.75-1.92s-1.14-.75-1.92-.75H13.33c-.76,0-1.4,.25-1.9,.75s-.76,1.14-.76,1.9v15.82c0,.76,.25,1.4,.76,1.92,.5,.5,1.14,.75,1.9,.76Zm24.8,0h12.62c.71,0,1.33-.27,1.87-.8s.8-1.16,.8-1.87v-3.73h-4.44v1.96h-9.07v-12.27h9.07v1.96h4.44v-3.73c0-.71-.27-1.33-.8-1.87s-1.16-.8-1.87-.8h-12.62c-.71,0-1.33,.27-1.87,.8s-.8,1.16-.8,1.87v15.82c0,.71,.27,1.33,.8,1.87,.53,.53,1.16,.8,1.87,.8Z"/>
    </g>
  </g>
</svg>