<?xml version="1.0" encoding="UTF-8"?>
<svg id="Layer_2" data-name="Layer 2" xmlns="http://www.w3.org/2000/svg" viewBox="0 0 64 64">
  <defs>
    <style>
      .cls-1 {
        fill: #fff;
      }

      .cls-2 {
        fill: none;
      }
    </style>
  </defs>
  <g id="Layer_2-2" data-name="Layer 2">
    <rect class="cls-2" width="64" height="64"/>
    <g id="Layer_1-2" data-name="Layer 1-2">
      <path class="cls-1" d="M39.11,63.11v-5.51c5.74-1.65,10.45-4.85,14.08-9.56,3.64-4.71,5.48-10.06,5.48-16.05s-1.81-11.34-5.42-16.09c-3.61-4.75-8.32-7.91-14.13-9.51V.89c7.34,1.65,13.33,5.39,17.96,11.16,4.62,5.78,6.93,12.43,6.93,19.95s-2.31,14.19-6.93,19.96c-4.62,5.78-10.61,9.49-17.96,11.15ZM0,42.76V21.42H14.22L32,3.64V60.53L14.22,42.76H0Zm37.33,4.27V17.07c3.25,1.01,5.85,2.9,7.79,5.69,1.92,2.79,2.88,5.9,2.88,9.33s-.98,6.45-2.93,9.24c-1.96,2.79-4.53,4.68-7.73,5.69Z"/>
    </g>
  </g>
</svg>